<svg width="14" height="14" viewBox="0 0 14 14" fill="none" xmlns="http://www.w3.org/2000/svg">
<path d="M12.9111 14L8.01111 9.1C7.62222 9.41111 7.175 9.65741 6.66944 9.83889C6.16389 10.0204 5.62593 10.1111 5.05556 10.1111C3.64259 10.1111 2.44689 9.62189 1.46844 8.64344C0.489482 7.66448 0 6.46852 0 5.05556C0 3.64259 0.489482 2.44663 1.46844 1.46767C2.44689 0.489222 3.64259 0 5.05556 0C6.46852 0 7.66448 0.489222 8.64344 1.46767C9.62189 2.44663 10.1111 3.64259 10.1111 5.05556C10.1111 5.62593 10.0204 6.16389 9.83889 6.66944C9.65741 7.175 9.41111 7.62222 9.1 8.01111L14 12.9111L12.9111 14ZM5.05556 8.55556C6.02778 8.55556 6.8543 8.21541 7.53511 7.53511C8.21541 6.8543 8.55556 6.02778 8.55556 5.05556C8.55556 4.08333 8.21541 3.25681 7.53511 2.576C6.8543 1.8957 6.02778 1.55556 5.05556 1.55556C4.08333 1.55556 3.25681 1.8957 2.576 2.576C1.8957 3.25681 1.55556 4.08333 1.55556 5.05556C1.55556 6.02778 1.8957 6.8543 2.576 7.53511C3.25681 8.21541 4.08333 8.55556 5.05556 8.55556Z" fill="#5971EE"/>
</svg>
