<svg width="22" height="25" viewBox="0 0 22 25" fill="none" xmlns="http://www.w3.org/2000/svg">
<path d="M3.71223 20.4136C3.02402 20.4136 2.38095 20.1765 1.91838 19.7365C1.33172 19.1837 1.04967 18.3488 1.1512 17.4463L1.56864 13.7909C1.64762 13.1027 2.06505 12.1888 2.55018 11.6924L11.8128 1.88837C14.1256 -0.559839 16.5399 -0.627531 18.9881 1.68529C21.4363 3.99811 21.504 6.41247 19.1912 8.86067L9.92865 18.6647C9.45481 19.1724 8.57479 19.6463 7.88659 19.7592L4.25377 20.3796C4.06197 20.3909 3.89274 20.4136 3.71223 20.4136ZM15.4343 1.67401C14.5656 1.67401 13.8097 2.21555 13.0425 3.02785L3.77992 12.8433C3.55428 13.0802 3.29479 13.6443 3.24967 13.9715L2.83223 17.6268C2.7871 17.9991 2.87736 18.3037 3.08044 18.4955C3.28351 18.6873 3.58813 18.755 3.96044 18.6986L7.59326 18.0782C7.92044 18.0218 8.46197 17.7283 8.68761 17.4914L17.9502 7.68734C19.3492 6.19811 19.8569 4.8217 17.8148 2.90375C16.9122 2.03503 16.1338 1.67401 15.4343 1.67401Z" fill="#161248"/>
<path d="M17.0249 10.7445C17.0023 10.7445 16.9685 10.7445 16.9459 10.7445C13.4259 10.3948 10.5941 7.72096 10.0526 4.22353C9.98489 3.76096 10.3008 3.33224 10.7634 3.25327C11.2259 3.18558 11.6546 3.50147 11.7336 3.96404C12.1623 6.6943 14.3736 8.79276 17.1264 9.06353C17.589 9.10865 17.9275 9.52609 17.8823 9.9886C17.8259 10.4173 17.4536 10.7445 17.0249 10.7445Z" fill="#161248"/>
<path d="M21.1538 24.0575H0.846154C0.38359 24.0575 0 23.674 0 23.2114C0 22.7488 0.38359 22.3652 0.846154 22.3652H21.1538C21.6164 22.3652 22 22.7488 22 23.2114C22 23.674 21.6164 24.0575 21.1538 24.0575Z" fill="#161248"/>
</svg>
