<svg width="772" height="847" viewBox="0 0 772 847" fill="none" xmlns="http://www.w3.org/2000/svg">
<g clip-path="url(#clip0_153_4263)">
<rect width="772" height="847" rx="20" fill="#161248"/>
<g opacity="0.8">
<path fill-rule="evenodd" clip-rule="evenodd" d="M363.313 276.688C388.676 276.688 409.237 257.08 409.237 232.892C409.237 208.704 388.676 189.096 363.313 189.096C337.951 189.096 317.39 208.704 317.39 232.892C317.39 257.08 337.951 276.688 363.313 276.688Z" fill="#D6D6D6"/>
<path fill-rule="evenodd" clip-rule="evenodd" d="M363.313 200.664C364.749 200.664 365.913 199.555 365.913 198.185C365.913 196.816 364.749 195.706 363.313 195.706C361.878 195.706 360.714 196.816 360.714 198.185C360.714 199.555 361.878 200.664 363.313 200.664Z" fill="#7D8FF1"/>
<path fill-rule="evenodd" clip-rule="evenodd" d="M326.921 235.371C328.357 235.371 329.521 234.261 329.521 232.892C329.521 231.522 328.357 230.413 326.921 230.413C325.486 230.413 324.322 231.522 324.322 232.892C324.322 234.261 325.486 235.371 326.921 235.371Z" fill="#7D8FF1"/>
<path fill-rule="evenodd" clip-rule="evenodd" d="M399.706 235.371C401.141 235.371 402.305 234.261 402.305 232.892C402.305 231.522 401.141 230.413 399.706 230.413C398.27 230.413 397.106 231.522 397.106 232.892C397.106 234.261 398.27 235.371 399.706 235.371Z" fill="#7D8FF1"/>
<path fill-rule="evenodd" clip-rule="evenodd" d="M363.313 270.077C364.749 270.077 365.913 268.967 365.913 267.598C365.913 266.229 364.749 265.119 363.313 265.119C361.878 265.119 360.714 266.229 360.714 267.598C360.714 268.967 361.878 270.077 363.313 270.077Z" fill="#7D8FF1"/>
<path fill-rule="evenodd" clip-rule="evenodd" d="M363.313 203.143L365.046 232.065H361.581L363.313 203.143Z" fill="#3552E9"/>
<path fill-rule="evenodd" clip-rule="evenodd" d="M378.649 247.516L362.719 234.662L365.17 232.325L378.649 247.516Z" fill="#3552E9"/>
<path fill-rule="evenodd" clip-rule="evenodd" d="M363.313 236.197C365.228 236.197 366.779 234.717 366.779 232.892C366.779 231.066 365.228 229.586 363.313 229.586C361.399 229.586 359.848 231.066 359.848 232.892C359.848 234.717 361.399 236.197 363.313 236.197Z" fill="#7D8FF1"/>
<g opacity="0.345889">
<path fill-rule="evenodd" clip-rule="evenodd" d="M362.999 502.029C357.165 437.137 44.1886 311.889 -13.9141 373.353C-72.017 434.817 -16.1583 550.17 105.604 579.708C227.366 609.247 368.831 566.921 362.999 502.029Z" fill="#F2F2F2"/>
<path fill-rule="evenodd" clip-rule="evenodd" d="M169.554 544.193C174.779 489.065 455.13 382.661 507.176 434.878C559.222 487.094 546.049 596.925 436.979 622.019C327.909 647.114 164.328 599.321 169.554 544.193Z" fill="#DDE3E9"/>
</g>
<path fill-rule="evenodd" clip-rule="evenodd" d="M39.3298 327.921C56.6241 327.921 70.6439 320.336 70.6439 310.978C70.6439 301.622 56.6241 294.036 39.3298 294.036C22.0355 294.036 8.01569 301.622 8.01569 310.978C8.01569 320.336 22.0355 327.921 39.3298 327.921Z" fill="white"/>
<path fill-rule="evenodd" clip-rule="evenodd" d="M75.8014 322.65C75.8014 301.856 59.4724 285 39.3297 285C19.187 285 2.85803 301.856 2.85803 322.65" fill="#C3CCF8"/>
<path d="M41.1718 170.036H37.4878V290.517H41.1718V170.036Z" fill="#C3CCF8"/>
<g opacity="0.7">
<path fill-rule="evenodd" clip-rule="evenodd" d="M83.906 280.728C96.8332 280.728 107.313 274.606 107.313 267.055C107.313 259.504 96.8332 253.382 83.906 253.382C70.9788 253.382 60.4993 259.504 60.4993 267.055C60.4993 274.606 70.9788 280.728 83.906 280.728Z" fill="#D6D6D6"/>
<path fill-rule="evenodd" clip-rule="evenodd" d="M111.168 276.474C111.168 259.693 98.9628 246.09 83.9062 246.09C68.8497 246.09 56.6445 259.693 56.6445 276.474" fill="#A0AEF5"/>
<path d="M86.1166 161H82.4326V263.409H86.1166V161Z" fill="#A0AEF5"/>
</g>
<path d="M451.088 321.244L467.177 305.894C469.884 303.311 474.274 303.311 476.982 305.894L519.814 346.759C522.412 349.239 523.872 352.6 523.872 356.106V626.795" stroke="#C3CCF8" stroke-width="8"/>
<path d="M546.401 625.969H500.477C499.042 625.969 497.878 627.079 497.878 628.448V629.274C497.878 630.643 499.042 631.753 500.477 631.753H546.401C547.836 631.753 549 630.643 549 629.274V628.448C549 627.079 547.836 625.969 546.401 625.969Z" fill="#C3CCF8"/>
<path d="M420.327 312.236C431.493 301.586 449.597 301.586 460.765 312.236C471.931 322.885 471.931 340.151 460.765 350.801L443.609 367.161L403.172 328.597L420.327 312.236Z" fill="#A0AEF5"/>
<path fill-rule="evenodd" clip-rule="evenodd" d="M420.092 351.233C431.259 361.882 442.094 368.815 444.294 366.717C446.493 364.619 439.224 354.286 428.057 343.637C416.891 332.987 406.055 326.055 403.855 328.152C401.656 330.25 408.926 340.584 420.092 351.233Z" fill="white"/>
<path fill-rule="evenodd" clip-rule="evenodd" d="M91.5691 400.811C99.2227 418.155 112.233 430.207 119.124 448.241C123.21 458.935 124.914 470.564 125.017 482.473C125.073 488.942 124.955 495.416 124.923 501.884C124.892 508.193 124.713 514.46 124.151 520.729C123.586 527.03 122.955 533.256 122.677 539.596C122.459 544.536 122.36 550.282 120.605 554.788C119.208 558.372 115.659 558.897 114.718 554.55C114.195 552.135 114.26 549.437 114.318 546.954C114.392 543.768 114.586 540.588 114.686 537.402C115.084 524.62 114.567 511.837 114.838 499.05C115.101 486.556 116.784 474.077 114.922 461.667C113.383 451.42 109.475 442.619 104.983 434.183C100.661 426.067 95.9569 418.147 93.0369 408.914C92.1982 406.263 91.55 403.516 91.239 400.664C91.375 400.604 91.485 400.652 91.5691 400.811Z" fill="#C3CCF8"/>
<path fill-rule="evenodd" clip-rule="evenodd" d="M89.4835 435.029C90.9989 436.073 91.8455 437.6 92.8697 439.106C94.1434 440.979 95.6416 442.669 96.9153 444.544C99.5702 448.451 101.904 452.599 104.325 456.664C108.92 464.381 112.41 472.606 114.137 481.534C115.929 490.786 116.412 500.336 117.163 509.726C117.96 519.679 118.763 529.704 118.868 539.695C118.916 544.171 119.17 548.923 118.606 553.368C118.255 556.134 116.946 558.493 113.994 558.47C107.724 558.423 104.779 551.799 103.55 546.368C101.74 538.369 101.379 529.873 101.665 521.693C102.011 511.83 103.806 502.116 104.583 492.29C105.406 481.889 104.941 471.672 101.191 461.879C99.2972 456.93 97.099 452.099 95.1243 447.183C94.2838 445.09 93.5949 442.94 92.4598 440.99C91.1965 438.823 89.629 436.854 88.6395 434.519C88.9203 434.689 89.2019 434.859 89.4835 435.029Z" fill="#12BEF4"/>
<path fill-rule="evenodd" clip-rule="evenodd" d="M161.713 414.289C161.905 414.146 162.098 414.004 162.29 413.861C161.737 416.086 160.737 417.893 159.971 419.927C159.284 421.756 158.936 423.825 158.473 425.824C157.386 430.518 156.13 435.107 155.104 439.841C153.071 449.209 153.456 459.301 154.788 469.695C156.047 479.514 158.038 489.316 158.986 499.133C159.773 507.273 160.111 515.668 159.361 523.434C158.851 528.709 157.181 535.007 152.627 534.475C150.484 534.225 149.366 531.764 148.915 528.987C148.192 524.526 148.04 519.836 147.758 515.4C147.129 505.499 147.004 495.628 146.879 485.828C146.761 476.583 146.438 467.155 147.085 458.142C147.71 449.445 149.664 441.609 152.458 434.379C153.93 430.569 155.332 426.671 156.986 423.04C157.778 421.299 158.747 419.76 159.541 418.02C160.179 416.62 160.685 415.184 161.713 414.289Z" fill="#C3CCF8"/>
<path fill-rule="evenodd" clip-rule="evenodd" d="M91.42 463.691C92.2492 462.363 94.0741 466.741 94.3522 467.292C94.2344 467.018 94.1165 466.744 93.9978 466.471C95.6433 469.081 97.1492 471.798 98.085 474.79C99.0113 477.753 99.8067 480.775 100.676 483.758C102.307 489.356 104.411 494.795 105.888 500.443C107.329 505.947 107.692 511.357 107.342 517.05C106.98 522.967 106.758 528.975 107.181 534.888C107.383 537.713 108.346 540.344 109.005 543.062C109.666 545.784 110.185 548.543 110.966 551.231C111.145 550.881 111.168 552.051 111.168 552.14C111.163 552.812 111.065 553.374 110.838 554.012C110.256 555.649 109.167 557.04 107.51 557.492C104.515 558.308 101.734 555.71 100.768 552.966C99.383 549.029 98.6188 544.68 97.9585 540.542C97.3537 536.748 97.2099 532.932 97.3901 529.086C97.7445 521.501 99.1837 514.015 99.5727 506.432C99.9964 498.177 98.2817 490.42 96.8459 482.385C96.1545 478.513 95.4934 474.678 94.1469 470.989C93.6019 469.495 92.8913 468.177 92.147 466.797C91.7224 466.013 90.8655 464.613 91.42 463.691Z" fill="#C3CCF8"/>
<path fill-rule="evenodd" clip-rule="evenodd" d="M115.719 450.796C115.376 460.253 114.783 469.639 113.461 478.996C112.112 488.545 110.561 498.062 109.263 507.62C107.999 516.924 106.675 526.382 106.851 535.816C106.981 542.764 105.773 554.52 113.865 557.949C122.061 561.422 123.819 546.59 124.358 541.695C125.389 532.303 125.055 522.811 124.554 513.368C124.04 503.675 123.183 494.032 122.12 484.376C120.939 473.649 120.013 462.874 119.269 452.117C118.901 446.796 118.81 441.484 118.912 436.162C119.008 431.14 118.808 426.066 116.935 421.298C116.837 421.366 116.74 421.433 116.642 421.501" fill="#5971EE"/>
<path fill-rule="evenodd" clip-rule="evenodd" d="M158.03 480.757C156.556 482.805 155.07 484.833 153.678 487.002C151.187 490.883 148.935 495.199 148.258 500.748C146.84 512.361 147.977 524.904 148.252 536.872C148.308 539.317 147.984 541.69 148.994 544.018C149.911 546.128 151.625 547.736 153.258 547.728C156.754 547.709 156.221 539.543 156.227 535.949C156.237 529.65 155.496 523.286 155.56 516.993C155.624 510.757 156.021 504.505 156.969 498.584C157.929 492.59 159.335 486.834 161.189 481.464C161.446 480.718 163.294 474.958 161.549 475.951" fill="#12BEF4"/>
<path fill-rule="evenodd" clip-rule="evenodd" d="M142.588 418.819C140.29 418.819 140.303 429.748 140.235 431.152C139.984 436.217 140.043 441.285 139.886 446.352C139.54 457.41 139.115 468.564 137.373 479.494C136.435 485.378 135.349 491.236 134.179 497.075C133.007 502.931 131.432 508.78 130.661 514.711C129.92 520.412 130.339 526.224 130.44 531.953C130.542 537.717 130.724 543.492 131.516 549.206C131.711 550.615 131.941 552.021 132.186 553.422C132.39 554.591 132.271 556.039 132.617 557.149C133.171 558.927 135.545 559.508 137.143 559.231C141.469 558.478 144.232 553.298 145.71 549.513C147.597 544.68 148.599 539.437 149.587 534.345C150.706 528.574 151.362 522.716 151.67 516.842C152.296 504.903 151.493 492.951 150.596 481.051C150.097 474.432 149.521 467.843 148.64 461.265C147.761 454.716 146.635 448.195 145.902 441.627C145.369 436.854 144.844 432.073 144.499 427.281C144.416 426.139 144.346 418.819 142.588 418.819Z" fill="#5971EE"/>
<path fill-rule="evenodd" clip-rule="evenodd" d="M139.711 498.262C139.335 486.788 134.5 436.386 133.399 422.51C133.124 419.037 130.475 404.577 130.131 400.639C129.199 401.752 129.278 419.074 129.289 423.055C129.3 426.992 128.788 430.864 128.524 434.78C128.256 438.776 122.061 490.381 121.258 494.22C119.659 501.859 118.589 509.697 117.763 517.507C116.959 525.119 115.708 533.15 116.785 540.802C117.031 542.563 117.423 544.297 118.061 545.915C118.749 547.664 119.221 549.281 119.774 551.11C120.663 554.057 122.272 556.643 124.744 557.861C129.812 560.355 132.534 554.708 133.914 549.791C136.117 541.94 137.531 533.96 138.194 525.713C138.927 516.59 140.01 507.448 139.711 498.262Z" fill="#12BEF4"/>
<path d="M163.157 532.028H87.7731C86.816 532.028 86.0401 532.767 86.0401 533.68V605.572C86.0401 606.485 86.816 607.225 87.7731 607.225H163.157C164.114 607.225 164.89 606.485 164.89 605.572V533.68C164.89 532.767 164.114 532.028 163.157 532.028Z" fill="#D6D6D6"/>
<path d="M84.3071 540.291H79.1083C78.1512 540.291 77.3753 541.031 77.3753 541.944V632.015C77.3753 632.928 78.1512 633.668 79.1083 633.668H84.3071C85.2642 633.668 86.0401 632.928 86.0401 632.015V541.944C86.0401 541.031 85.2642 540.291 84.3071 540.291Z" fill="#C3CCF8"/>
<path d="M127.631 540.291H122.432C121.475 540.291 120.699 541.031 120.699 541.944V632.015C120.699 632.928 121.475 633.668 122.432 633.668H127.631C128.588 633.668 129.364 632.928 129.364 632.015V541.944C129.364 541.031 128.588 540.291 127.631 540.291Z" fill="#C3CCF8"/>
<path d="M171.822 540.291H166.623C165.666 540.291 164.89 541.031 164.89 541.944V632.015C164.89 632.928 165.666 633.668 166.623 633.668H171.822C172.779 633.668 173.555 632.928 173.555 632.015V541.944C173.555 541.031 172.779 540.291 171.822 540.291Z" fill="#C3CCF8"/>
</g>
<path fill-rule="evenodd" clip-rule="evenodd" d="M305.521 375.79C311.006 378.993 316.394 380.54 318.924 379.908C325.267 378.324 325.85 355.846 320.942 346.984C316.034 338.122 290.804 334.259 289.533 351.817C289.091 357.911 291.733 363.35 295.635 367.787L288.638 399.383H308.964L305.521 375.79Z" fill="#DBCBBC"/>
<path fill-rule="evenodd" clip-rule="evenodd" d="M279.459 488.812L342.39 590.735L389.571 676.901H399.733L320.682 488.812H279.459Z" fill="#DBCBBC"/>
<path fill-rule="evenodd" clip-rule="evenodd" d="M385.705 672.006C384.797 671.62 383.718 672.011 383.38 672.915C382.764 674.561 381.936 677.032 381.936 678.424C381.936 680.643 382.699 684.9 382.699 684.9C385.357 684.9 430.467 684.9 430.467 684.9C430.467 684.9 432.33 678.937 428.318 678.462C424.306 677.987 421.652 677.603 421.652 677.603L399.45 668.015C399.014 667.826 398.504 668.024 398.322 668.451L396.895 671.805C396.895 671.805 393.182 673.484 390.86 673.484C389.447 673.484 387.226 672.654 385.705 672.006Z" fill="#E4E4E4"/>
<path fill-rule="evenodd" clip-rule="evenodd" d="M376.468 663.103L396.066 657.36C396.066 657.36 383.186 620.061 364.494 575.267C345.803 530.473 330.56 476.095 330.56 476.095L276.358 487.582C276.358 487.582 292.85 541.511 319.574 584.58C346.299 627.648 376.468 663.103 376.468 663.103Z" fill="#5971EE"/>
<path fill-rule="evenodd" clip-rule="evenodd" d="M275.323 488.812C269.384 524.628 257.928 570.388 256.847 571.8C256.126 572.741 230.179 581.164 179.006 597.069L181.201 605.75C242.225 597.22 274.379 590.603 277.664 585.897C282.592 578.839 307.195 523.077 316.723 488.812H275.323Z" fill="#DBCBBC"/>
<path fill-rule="evenodd" clip-rule="evenodd" d="M196.994 589.564L200.861 603.546C246.503 607.424 274.469 604.622 284.759 595.14C295.048 585.658 317.819 536.267 330.984 474.865H274.24C265.9 525.145 254.156 565.288 253.171 567.399C252.185 569.51 233.46 576.899 196.994 589.564Z" fill="#1233E5"/>
<path fill-rule="evenodd" clip-rule="evenodd" d="M182.852 595.532C183.088 594.599 182.502 593.637 181.525 593.472C179.744 593.17 177.089 592.81 175.674 593.051C173.418 593.436 169.222 594.904 169.222 594.904C169.684 597.439 177.517 640.476 177.517 640.476C177.517 640.476 183.902 641.217 183.689 637.307C183.476 633.397 183.405 630.799 183.405 630.799L189.297 607.953C189.412 607.505 189.123 607.052 188.657 606.953L185 606.173C185 606.173 182.648 602.922 182.245 600.706C182 599.358 182.457 597.096 182.852 595.532Z" fill="#E4E4E4"/>
<path fill-rule="evenodd" clip-rule="evenodd" d="M387.926 431.958L357.238 445.014L367.037 457.175L390.02 440.104C401.5 438.062 406.824 436.307 405.992 434.84C405.291 433.603 403.986 433.533 402.784 433.469C401.847 433.419 400.973 433.372 400.495 432.78C399.405 431.426 402.096 427.246 404.825 423.385C407.554 419.524 404.996 419.664 403.499 420.126C398.492 422.824 393.302 426.769 387.926 431.958ZM250.526 451.946L233.172 448.61C221.402 478.663 214.385 495.131 212.121 498.016C210.46 500.131 200.222 505.58 193.291 508.49C190.51 509.657 191.107 511.935 191.923 512.664C197.069 517.259 201.853 515.648 207.061 513.895C208.569 513.387 210.112 512.868 211.71 512.483C215.845 511.489 217.104 513.549 218.293 515.496C219.346 517.22 220.345 518.854 223.238 518.202C223.106 517.652 222.945 517.036 222.77 516.37C221.642 512.071 219.979 505.73 222.447 502.046C223.713 500.156 233.073 483.455 250.526 451.946Z" fill="#DBCBBC"/>
<path fill-rule="evenodd" clip-rule="evenodd" d="M297.695 385.708L305.019 384.491C320.97 399.48 327.479 435.493 338.109 440.26C348.16 444.767 362.408 440.405 379.343 434.517L384.529 445.742C369.141 461.869 336.361 475.494 323.073 467.716C301.829 455.28 296.926 410.864 297.695 385.708Z" fill="#12BEF4"/>
<path fill-rule="evenodd" clip-rule="evenodd" d="M265.771 474.865C265.771 474.865 309.818 474.865 330.57 474.865C333.531 474.865 332.973 470.723 332.545 468.632C327.606 444.511 308.321 418.509 308.321 384.172L289.631 381.333C274.17 405.42 268.824 435.076 265.771 474.865Z" fill="#DDE3E9"/>
<path fill-rule="evenodd" clip-rule="evenodd" d="M288.637 381.333H288.424C246.5 406.36 221.164 445.156 212.415 497.722L225.997 500.299C234.994 490.144 246.098 473.526 259.308 450.442C255.255 464.347 252.296 478.608 251.373 492.094H309.702C320.994 464.449 295.824 381.333 295.824 381.333H291.797H288.637Z" fill="#12BEF4"/>
</g>
<defs>
<clipPath id="clip0_153_4263">
<rect width="772" height="847" rx="20" fill="white"/>
</clipPath>
</defs>
</svg>
