<svg width="331" height="331" viewBox="0 0 331 331" fill="none" xmlns="http://www.w3.org/2000/svg">
<rect width="331" height="331" fill="white"/>
<circle cx="59.8346" cy="117.76" r="27.3712" fill="#5971EE"/>
<path d="M155.475 215.07C156.058 215.813 156.88 216.423 157.941 216.901C159.002 217.325 160.381 217.537 162.079 217.537C163.829 217.537 167.012 217.139 171.627 216.344L170.751 226.608H127.865L128.342 217.537C132.851 217.643 135.848 216.847 137.333 215.15C139.826 212.339 143.248 198.282 147.597 172.979L154.918 127.944C155.289 125.716 155.475 123.648 155.475 121.738C155.475 116.646 153.353 114.1 149.109 114.1C146.192 114.1 143.46 114.418 140.914 115.054L142.187 104.87H178.151C178.947 109.538 180.538 115.85 182.925 123.807C188.177 140.781 192.129 153.114 194.781 160.806C201.517 180.273 206.318 193.826 209.182 201.464C225.149 154.361 234.167 127.228 236.235 120.067C238.304 112.853 239.657 107.787 240.293 104.87H276.019L274.825 114.1C269.627 114.1 266.338 114.444 264.959 115.134C263.633 115.824 262.758 116.619 262.333 117.521C261.909 118.423 261.697 119.404 261.697 120.465C261.697 121.844 261.829 123.674 262.095 125.955L263.606 136.538C267.16 161.946 271.271 184.57 275.939 204.408C277.266 209.607 278.353 212.843 279.202 214.116C280.528 216.184 282.437 217.219 284.931 217.219C288.378 217.219 291.163 216.927 293.285 216.344L292.251 226.608H244.59L245.624 218.731C249.974 218.837 252.971 218.253 254.615 216.98C257.692 214.646 259.23 211.119 259.23 206.398C259.23 204.435 258.859 201.358 258.116 197.168L245.624 127.308L223.107 193.985C219.606 204.541 216.37 215.07 213.4 225.573C210.959 225.573 207.034 226.369 201.624 227.96L166.773 127.467C165.818 134.151 164.757 140.887 163.59 147.677C161.044 161.628 159.32 170.964 158.419 175.685C157.517 180.406 156.774 184.49 156.191 187.938C154.864 195.842 154.201 201.624 154.201 205.284C154.201 208.944 154.281 211.304 154.44 212.365C154.599 213.373 154.944 214.275 155.475 215.07Z" fill="#161248"/>
<path d="M89.0144 181.421L88.9562 128.589C88.9562 122.223 88.691 118.431 88.1606 117.211C87.6832 115.991 86.9405 115.168 85.9327 114.744C84.9779 114.32 83.5457 114.108 81.636 114.108C78.7186 114.108 75.9072 114.399 73.2019 114.983L74.6341 105.514H90.7067C100.785 105.514 107.999 105.355 112.349 105.037C119.828 104.559 126.539 104.347 132.48 104.4C138.474 104.453 144.043 105.382 149.189 107.185C154.334 108.989 158.498 111.482 161.681 114.664C167.781 120.712 170.831 129.199 170.831 140.126C170.831 151.902 166.614 161.503 158.18 168.929C150.064 176.143 139.853 179.751 127.546 179.751C122.719 179.751 117.839 179.087 112.906 177.761L111.394 168.452C116.062 169.513 120.359 170.043 124.284 170.043C128.262 170.043 132.055 169.38 135.662 168.054C139.269 166.728 142.319 164.818 144.812 162.325C150.011 157.233 152.61 150.178 152.61 141.16C152.61 122.595 142.187 113.312 121.34 113.312C116.46 113.312 111.5 113.816 106.461 114.824V181.421H89.0144Z" fill="white"/>
<path d="M94.1281 214.911C95.4012 216.131 96.8069 216.927 98.3452 217.298C99.8835 217.67 101.873 217.855 104.313 217.855C106.806 217.855 109.989 217.325 113.861 216.264L112.906 226.608H61.5055L62.3808 217.935C67.1018 217.935 70.3905 216.476 72.2471 213.559C73.9976 210.853 74.8728 206.424 74.8728 200.271L74.7933 127.944C74.7933 121.579 74.528 117.786 73.9976 116.566C73.5202 115.346 72.7776 114.524 71.7697 114.1C70.8149 113.675 69.3827 113.463 67.4731 113.463C64.5556 113.463 61.7442 113.755 59.0389 114.338L60.4712 104.87H76.5437C86.6223 104.87 93.8364 104.711 98.1861 104.392C105.665 103.915 112.376 103.703 118.317 103.756C124.311 103.809 129.88 104.737 135.026 106.541C140.171 108.344 144.335 110.837 147.518 114.02C153.618 120.067 156.668 128.554 156.668 139.481C156.668 151.257 152.451 160.859 144.017 168.285C135.901 175.499 125.69 179.106 113.383 179.106C108.556 179.106 103.676 178.443 98.743 177.117L97.2313 167.807C101.899 168.868 106.196 169.399 110.121 169.399C114.1 169.399 117.892 168.736 121.499 167.41C125.106 166.083 128.156 164.174 130.65 161.681C135.848 156.588 138.447 149.533 138.447 140.516C138.447 121.95 128.024 112.667 107.177 112.667C102.297 112.667 97.3373 113.171 92.2981 114.179V205.841C92.2981 210.615 92.9081 213.638 94.1281 214.911Z" fill="#161248"/>
<rect x="206.394" y="156.657" width="17.0032" height="70.0362" transform="rotate(18.7837 206.394 156.657)" fill="white"/>
</svg>
