<svg width="68" height="70" viewBox="0 0 68 70" fill="none" xmlns="http://www.w3.org/2000/svg">
<rect width="68" height="70" rx="5" fill="white"/>
<path d="M34.0002 56.6668C30.6779 56.6668 27.8613 55.5113 25.5502 53.2002C23.2391 50.889 22.0835 48.0724 22.0835 44.7502V22.0002C22.0835 19.6168 22.9321 17.5766 24.6293 15.8793C26.3266 14.1821 28.3668 13.3335 30.7502 13.3335C33.1335 13.3335 35.1738 14.1821 36.871 15.8793C38.5682 17.5766 39.4168 19.6168 39.4168 22.0002V42.5835C39.4168 44.1002 38.8932 45.3821 37.846 46.4293C36.7988 47.4766 35.5168 48.0002 34.0002 48.0002C32.4835 48.0002 31.2016 47.4766 30.1543 46.4293C29.1071 45.3821 28.5835 44.1002 28.5835 42.5835V22.0002H31.8335V42.5835C31.8335 43.1974 32.0411 43.712 32.4564 44.1272C32.8717 44.5425 33.3863 44.7502 34.0002 44.7502C34.6141 44.7502 35.1286 44.5425 35.5439 44.1272C35.9592 43.712 36.1668 43.1974 36.1668 42.5835V22.0002C36.1668 20.4835 35.6432 19.2016 34.596 18.1543C33.5488 17.1071 32.2668 16.5835 30.7502 16.5835C29.2335 16.5835 27.9516 17.1071 26.9043 18.1543C25.8571 19.2016 25.3335 20.4835 25.3335 22.0002V44.7502C25.3335 47.1335 26.1821 49.1738 27.8793 50.871C29.5766 52.5682 31.6168 53.4168 34.0002 53.4168C36.3835 53.4168 38.4238 52.5682 40.121 50.871C41.8182 49.1738 42.6668 47.1335 42.6668 44.7502V22.0002H45.9168V44.7502C45.9168 48.0724 44.7613 50.889 42.4502 53.2002C40.1391 55.5113 37.3224 56.6668 34.0002 56.6668Z" fill="#5971EE"/>
</svg>
