<svg width="1926" height="892" viewBox="0 0 1926 892" fill="none" xmlns="http://www.w3.org/2000/svg">
<g clip-path="url(#clip0_505_3541)">
<rect width="1926" height="892" fill="white"/>
<g opacity="0.7">
<path fill-rule="evenodd" clip-rule="evenodd" d="M-5.72099 694.289C7.93102 693.581 24.816 701.55 26.272 716.39C27.33 727.172 27.003 737.924 28.64 748.691C29.949 757.295 32.718 765.555 36.495 773.393C40.127 780.93 47.66 787.346 49.619 795.398C50.868 800.529 50.169 807.746 48.447 812.764C46.353 818.866 47.466 818.384 51.639 823.504C59.816 833.537 67.18 843.826 72.387 855.809C79.887 873.069 84.805 893.244 82.021 912.137C81.667 914.536 81.247 923.146 77.943 923.748C74.253 924.421 75.979 919.497 76.176 917.906C77.431 907.757 78.547 898.886 77.032 888.578C71.189 848.807 42.658 822.604 24.08 788.85C23.059 787.109 20.903 782.964 19.404 780.23C17.037 775.912 14.658 767.698 11.454 764.496C5.42003 758.466 10.968 770.59 12.143 772.904C13.63 775.832 15.265 778.944 16.789 781.509C23.759 793.401 31.5391 806.381 38.7371 818.64C7.60405 825.733 -14.322 788.304 -22.677 763.697C-29.561 743.424 -37.797 696.024 -5.72099 694.289Z" fill="#5971EE"/>
<path fill-rule="evenodd" clip-rule="evenodd" d="M177.262 656.64C154.44 658.451 139.788 673.511 132.968 694.575C129.292 705.926 128.87 717.587 126.827 729.253C123.755 746.803 117.143 760.104 104.221 772.608C100.219 776.48 97.2691 780.456 95.1731 784.71C91.0111 788.957 87.3881 793.763 84.7261 799.639C81.3261 807.143 80.3641 816.147 84.2891 823.628C85.3451 825.64 87.9781 829.677 90.7071 831.511C80.4901 853.271 74.8721 877.103 75.5051 900.905C75.8881 915.272 76.5891 929.646 77.4081 943.996C77.6281 947.849 78.8831 954.212 80.7671 947.75C82.4921 941.839 80.3291 932.56 80.1291 926.386C79.1551 896.305 78.3231 868.954 90.7051 840.85C92.0041 837.904 93.3811 834.982 94.8141 832.084C94.8991 832.035 94.9771 831.976 95.0561 831.919C95.1101 831.961 95.1601 832.006 95.2151 832.048C95.3061 831.884 95.4321 831.69 95.5781 831.473C95.9891 831.048 96.3481 830.512 96.6901 829.914C97.7881 828.392 99.0311 826.603 99.0381 825.624C99.0381 825.617 99.0341 825.605 99.0341 825.597C106.699 813.084 115.479 801.261 124.447 789.668C124.38 789.753 134.175 776.416 132.661 783.791C131.931 787.346 124.726 794.114 121.816 797.879C115.379 806.254 107.82 816.867 101.539 827.129C100.694 827.615 99.5001 829.999 98.6361 831.776C98.1591 832.676 97.7141 833.583 97.2771 834.374C119.534 841.727 136.847 826.915 148.653 809.687C148.667 809.666 148.68 809.645 148.693 809.625C152.286 804.865 155.966 800.138 160.564 796.375C168.234 790.095 176.449 788.987 185.493 785.897C210.157 777.47 220.643 745.506 223.973 721.789C227.731 695.032 209.351 654.002 177.262 656.64Z" fill="#7D8FF1"/>
<path fill-rule="evenodd" clip-rule="evenodd" d="M132.18 581.71C108.756 606.088 97.4391 639.902 88.4791 671.691C78.4711 707.195 71.8601 743.247 71.6061 780.161C71.4401 804.414 70.7802 828.818 72.1962 853.042C72.6982 861.645 73.5561 870.264 74.9191 878.774C75.0321 879.474 78.0831 898.477 81.0021 894.049C82.6621 891.531 77.8742 874.336 77.5132 871.472C75.4782 855.341 75.0051 839.092 75.1041 822.845C75.2671 796.094 74.4791 769.481 77.1901 742.829C77.5941 738.849 77.9141 734.67 78.8591 730.777C79.8631 726.638 78.5841 728.445 81.8531 726.806C85.0301 725.214 88.9552 725.441 92.2512 723.443C105.323 715.516 112.01 695.154 117.215 681.794C123.168 666.517 126.786 650.225 129.676 634.147C131.798 622.335 133.315 610.594 134.173 598.629C134.444 594.858 134.46 590.915 135.201 587.207C135.401 586.207 136.402 584.438 136.366 583.552C136.289 581.677 135.158 580.575 135.065 579C134.084 579.882 133.122 580.786 132.18 581.71Z" fill="#7D8FF1"/>
<path fill-rule="evenodd" clip-rule="evenodd" d="M127.485 842.604C145.552 841.272 165.728 855.848 174.443 871.016C181.469 883.245 180.285 899.304 175.946 912.297C173.04 920.995 166.698 933.397 156.122 933.518C142.89 933.669 142.252 917.315 141.996 907.755C141.656 895.044 140.05 883.972 130.034 875.308C128.798 874.239 127.5 873.238 126.203 872.237C125.051 871.348 123.9 870.46 122.791 869.524C122.614 869.374 122.435 869.225 122.257 869.075C118.715 866.098 114.996 862.972 114.543 858.065C113.887 850.955 117.9 849.675 124.028 850.996C124.226 851.039 124.763 851.242 125.493 851.519C128.623 852.705 135.301 855.237 134.038 852.211C133.562 851.071 131.825 850.167 129.632 849.49C123.958 848.873 117.19 848.157 115.244 848.585C94.249 853.191 86.074 882.274 83.903 900.752C83.669 902.746 83.48 904.747 83.314 906.751H79.457C79.725 901.912 80.078 897.081 80.887 892.295C83.982 873.992 93.657 847.11 114.877 844.139C115.66 844.029 118.54 844.01 122.028 844.215C123.681 843.291 125.533 842.732 127.485 842.604Z" fill="#5971EE"/>
</g>
<circle opacity="0.4" cx="204" cy="6" r="106" fill="#5971EE"/>
<circle opacity="0.4" cx="381.5" cy="43.5" r="37.5" fill="#C3CCF8"/>
<g opacity="0.7">
<path fill-rule="evenodd" clip-rule="evenodd" d="M1930.22 482.445C1934.42 476.453 1942.22 461.235 1948.14 459.094C1951.95 457.715 1950.84 471.98 1950.88 474.7C1951.07 485.224 1950.04 495.681 1948.78 506.116C1946.5 524.937 1939.04 541.697 1928.82 557.715C1923.56 565.957 1917.39 574.3 1908.84 579.442C1904.91 581.811 1900.18 582.207 1896.29 584.248C1891.77 586.623 1894.23 584.703 1892.19 589.417C1889.36 595.963 1888.46 604.408 1887.15 611.392C1881.13 643.455 1866.57 812.945 1869.09 845.558C1869.32 848.449 1865.29 849.14 1865.08 845.611C1864.02 826.9 1873.27 697.322 1877.94 654.947C1882.61 612.571 1887.33 575.134 1892.07 560.474C1897.82 542.687 1908.2 521.298 1916.84 504.711C1920.85 497.006 1925.23 489.565 1930.22 482.445Z" fill="#3552E9"/>
<path fill-rule="evenodd" clip-rule="evenodd" d="M1961.41 690.278C1972.35 682.25 1984.19 697.401 1974.29 705.43C1968.82 709.868 1963.1 708.29 1959.88 704.591C1957.79 707.139 1955.84 709.803 1953.96 712.052C1948.23 718.909 1942.82 725.928 1937.64 733.111C1926.9 748.035 1917.69 763.801 1908.06 779.278C1898.56 794.554 1889.13 809.908 1880.52 825.571C1873.22 838.841 1863.5 854.452 1861 869C1864.79 838.146 1879.17 808.49 1896.3 781.291C1913.29 754.314 1932.78 724.853 1959.08 703.564C1956.4 699.627 1956.33 694.008 1961.41 690.278Z" fill="#C3CCF8"/>
<path fill-rule="evenodd" clip-rule="evenodd" d="M1753.91 615.031C1760.03 616.227 1770.03 630.07 1775.08 635.344C1781.07 641.612 1786.51 648.292 1791.63 655.292C1802.67 670.358 1812.54 686.376 1820.93 703.08C1834.62 730.311 1845.58 758.265 1853.53 787.918C1858.4 806.069 1861.56 824.883 1863.42 843.565C1863.78 847.089 1867.47 874.253 1862.15 874.985C1857.36 875.644 1858.84 854.359 1858.61 851.463C1856 818.798 1848.18 787.015 1837.3 756.226C1834.93 749.519 1832.73 741.304 1828.94 735.268C1826.21 730.921 1828.92 732.437 1824.12 730.792C1820 729.378 1815.31 729.724 1811.1 727.993C1801.94 724.237 1794.6 716.944 1788.17 709.608C1775.68 695.351 1765.77 679.928 1760.61 661.66C1757.75 651.532 1755.12 641.344 1753.66 630.902C1753.28 628.203 1749.97 614.26 1753.91 615.031Z" fill="#3552E9"/>
<path fill-rule="evenodd" clip-rule="evenodd" d="M1778.06 384.716C1801.11 424.69 1820.05 468.601 1832.28 513.076C1839.69 540.023 1844.88 567.675 1850.02 595.126C1858 637.632 1865.54 680.134 1867.68 723.395C1869.84 766.906 1874.11 817.092 1859.86 859C1866.98 816.452 1860.2 771.162 1859 728.35C1858.43 707.912 1856.77 687.674 1854.59 667.355C1852.47 647.645 1849.02 628.029 1845.8 608.474C1844.23 598.95 1842.59 589.441 1840.91 579.937C1840.41 577.101 1840.2 568.687 1838.4 566.75C1836.59 564.8 1827.35 564.005 1824.45 562.574C1818.61 559.693 1813.12 555.6 1808.26 551.275C1798.94 542.984 1790.83 532.151 1784.44 521.472C1769.63 496.764 1763.71 466.61 1764.01 437.994C1764.07 432.438 1773 372.61 1769.41 371.786C1769.63 371.533 1769.84 371.272 1770.03 371C1772.74 375.549 1775.41 380.128 1778.06 384.716Z" fill="#7D8FF1"/>
<path fill-rule="evenodd" clip-rule="evenodd" d="M2026.85 528.887C2027.2 528.374 2029.52 524.807 2028.35 525.035C2030.72 524.57 2025.09 528.969 2031 526.27C2028.19 528.922 2029.81 532.366 2029.85 535.935C2029.91 541.73 2028.94 547.476 2027.85 553.146C2026.13 562.109 2023.56 570.823 2019.83 579.159C2011.7 597.326 1997.9 614.814 1981.52 626.172C1973.43 631.779 1965.5 633.689 1956.28 636.27C1950.45 637.901 1949.99 640.915 1946.9 646.569C1940.46 658.345 1934.14 670.078 1928.46 682.251C1921.68 696.788 1915.1 711.34 1908.89 726.132C1887.97 775.957 1870.95 827.578 1862.01 881C1861.79 849.519 1869.07 817.095 1878.26 787.088C1884.95 765.226 1893.66 744.151 1902.95 723.29C1905.2 718.236 1908.61 711.735 1909.57 706.155C1910.24 702.245 1908.19 698.486 1907.26 694.367C1903.6 678.33 1903.86 660.363 1907.07 644.24C1910.61 626.461 1920.84 618.209 1938.15 615.691C1944.47 614.769 1952.52 615.107 1958.32 612.408C1964.65 609.47 1967.25 599.81 1970.85 593.61C1980.51 576.953 1991.98 560.979 2005.16 546.945C2008.8 543.059 2012.73 539.473 2016.89 536.15C2019.51 534.053 2025.06 531.47 2026.85 528.887Z" fill="#7D8FF1"/>
<path fill-rule="evenodd" clip-rule="evenodd" d="M1827.85 852.729C1827.4 849.71 1829.74 847 1832.79 847H1894.21C1897.26 847 1899.6 849.71 1899.16 852.729L1894.41 884.918C1892.96 894.73 1884.54 902 1874.62 902H1852.38C1842.46 902 1834.04 894.73 1832.59 884.918L1827.85 852.729Z" fill="#C3CCF8"/>
</g>
<circle opacity="0.4" cx="1269" cy="936" r="106" fill="#A0AEF5"/>
<circle opacity="0.4" cx="1374.5" cy="867.5" r="37.5" fill="#3552E9"/>
</g>
<defs>
<clipPath id="clip0_505_3541">
<rect width="1926" height="892" fill="white"/>
</clipPath>
</defs>
</svg>
